<svg width="0" height="0" style="position:absolute"><symbol fill="none" viewBox="0 0 16 22" id="adress" xmlns="http://www.w3.org/2000/svg"><path d="M13.555 11.92c-.699 1.416-1.646 2.827-2.614 4.093A41.963 41.963 0 018 19.44a41.968 41.968 0 01-2.941-3.427c-.968-1.266-1.915-2.677-2.614-4.093C1.74 10.49 1.333 9.15 1.333 8a6.667 6.667 0 0113.334 0c0 1.15-.407 2.49-1.112 3.92zM8 21.333S16 13.752 16 8A8 8 0 000 8c0 5.752 8 13.333 8 13.333z" fill="#3A4097"/><path d="M8 10.667a2.667 2.667 0 110-5.334 2.667 2.667 0 010 5.334zM8 12a4 4 0 100-8 4 4 0 000 8z" fill="#3A4097"/></symbol><symbol fill="none" viewBox="0 0 26 27" id="cart" xmlns="http://www.w3.org/2000/svg"><path d="M22.386 20.197H6.354a1.676 1.676 0 01-1.605-1.739v0a1.695 1.695 0 011.423-1.728l16.296-2.018L25 3.742H9.77" stroke="#3A4097" stroke-width="2" stroke-linecap="round" stroke-linejoin="round"/><path d="M1 1h2.446a1.033 1.033 0 01.987.84l3.236 14.53" stroke="#3A4097" stroke-width="2" stroke-linecap="round" stroke-linejoin="round"/><path d="M7.85 25.134a1.371 1.371 0 100-2.743 1.371 1.371 0 000 2.743zm12.068 0a1.371 1.371 0 100-2.743 1.371 1.371 0 000 2.743z" stroke="#3A4097" stroke-width="2" stroke-linejoin="round"/></symbol><symbol fill="none" viewBox="0 0 22 23" id="cart-icon" xmlns="http://www.w3.org/2000/svg"><path d="M18.822 16.998H5.462a1.397 1.397 0 01-1.337-1.45v0a1.413 1.413 0 011.185-1.44l13.58-1.681L21 3.285H8.309" stroke="#fff" stroke-width="2" stroke-linecap="round" stroke-linejoin="round"/><path d="M1 1h2.038a.86.86 0 01.823.7l2.697 12.108" stroke="#fff" stroke-width="2" stroke-linecap="round" stroke-linejoin="round"/><path d="M6.71 21.112a1.143 1.143 0 100-2.286 1.143 1.143 0 000 2.286zm10.055 0a1.143 1.143 0 100-2.286 1.143 1.143 0 000 2.286z" stroke="#fff" stroke-width="2" stroke-linejoin="round"/></symbol><symbol viewBox="0 0 20 19" id="favorite" xmlns="http://www.w3.org/2000/svg"><path d="M19.61 3.333c.909 2.806.149 5.662-1.453 7.814-1.058 1.46-2.322 2.717-3.614 3.816-1.188 1.107-3.848 3.296-4.554 3.357-.623-.119-1.322-.824-1.817-1.186C5.392 15.02 2.399 12.45.882 9.64c-1.273-2.698-1.275-6.035.705-8.103 2.568-2.315 6.439-1.863 8.402.555A5.683 5.683 0 0111.935.478c3.12-1.245 6.366.024 7.675 2.855z"/></symbol><symbol fill="none" viewBox="0 0 20 20" id="phone" xmlns="http://www.w3.org/2000/svg"><path d="M18.178 14.059c-.746-.767-2.868-2.204-4.259-2.204-.322 0-.603.071-.833.22-.68.434-1.222.772-1.483.772-.143 0-.297-.128-.634-.42l-.056-.05c-.936-.814-1.135-1.023-1.498-1.402l-.092-.097c-.067-.066-.123-.128-.18-.184-.316-.327-.547-.562-1.36-1.483l-.035-.04c-.389-.44-.645-.727-.66-.936-.015-.205.164-.537.619-1.156.552-.746.572-1.667.066-2.735C7.37 3.5 6.71 2.692 6.127 1.982l-.051-.062C5.575 1.307 4.992 1 4.342 1c-.72 0-1.319.389-1.636.593-.025.015-.05.036-.076.051-.711.45-1.227 1.069-1.422 1.698-.291.946-.485 2.173.91 4.724 1.207 2.209 2.301 3.692 4.04 5.476 1.636 1.677 2.362 2.22 3.988 3.395 1.81 1.309 3.548 2.06 4.765 2.06 1.13 0 2.02 0 3.288-1.528 1.329-1.606.777-2.587-.02-3.41z" stroke="#3A4097" stroke-width="1.4"/></symbol><symbol fill="none" viewBox="0 0 20 21" id="search" xmlns="http://www.w3.org/2000/svg"><path d="M8.135 1.283a6.852 6.852 0 11-6.846 6.852 6.883 6.883 0 016.846-6.852zm0-1.283a8.135 8.135 0 100 16.27 8.135 8.135 0 000-16.27zm11.683 18.955l-4.612-4.644-.888.883 4.612 4.643a.626.626 0 10.888-.882z" fill="#A4A4A4"/></symbol><symbol fill="none" viewBox="0 0 6 4" id="submenu-marker" xmlns="http://www.w3.org/2000/svg"><path d="M5.514.387L2.757 3.415 0 .387h5.514z" fill="#727385"/></symbol></svg>