<?xml version="1.0" encoding="utf-8"?><svg viewBox="0 0 26 27" xmlns="http://www.w3.org/2000/svg" xmlns:xlink="http://www.w3.org/1999/xlink"><style>:root>svg{display:none}:root>svg:target{display:block}</style><svg fill="none" viewBox="0 0 16 22" id="adress" xmlns="http://www.w3.org/2000/svg"><path d="M13.555 11.92c-.699 1.416-1.646 2.827-2.614 4.093A41.963 41.963 0 018 19.44a41.968 41.968 0 01-2.941-3.427c-.968-1.266-1.915-2.677-2.614-4.093C1.74 10.49 1.333 9.15 1.333 8a6.667 6.667 0 0113.334 0c0 1.15-.407 2.49-1.112 3.92zM8 21.333S16 13.752 16 8A8 8 0 000 8c0 5.752 8 13.333 8 13.333z" fill="#3A4097"/><path d="M8 10.667a2.667 2.667 0 110-5.334 2.667 2.667 0 010 5.334zM8 12a4 4 0 100-8 4 4 0 000 8z" fill="#3A4097"/></svg><svg fill="none" viewBox="0 0 26 27" id="cart" xmlns="http://www.w3.org/2000/svg"><path d="M22.386 20.197H6.354a1.676 1.676 0 01-1.605-1.739v0a1.695 1.695 0 011.423-1.728l16.296-2.018L25 3.742H9.77" stroke="#3A4097" stroke-width="2" stroke-linecap="round" stroke-linejoin="round"/><path d="M1 1h2.446a1.033 1.033 0 01.987.84l3.236 14.53" stroke="#3A4097" stroke-width="2" stroke-linecap="round" stroke-linejoin="round"/><path d="M7.85 25.134a1.371 1.371 0 100-2.743 1.371 1.371 0 000 2.743zm12.068 0a1.371 1.371 0 100-2.743 1.371 1.371 0 000 2.743z" stroke="#3A4097" stroke-width="2" stroke-linejoin="round"/></svg><svg fill="none" viewBox="0 0 20 20" id="phone" xmlns="http://www.w3.org/2000/svg"><path d="M18.178 14.059c-.746-.767-2.868-2.204-4.259-2.204-.322 0-.603.071-.833.22-.68.434-1.222.772-1.483.772-.143 0-.297-.128-.634-.42l-.056-.05c-.936-.814-1.135-1.023-1.498-1.402l-.092-.097c-.067-.066-.123-.128-.18-.184-.316-.327-.547-.562-1.36-1.483l-.035-.04c-.389-.44-.645-.727-.66-.936-.015-.205.164-.537.619-1.156.552-.746.572-1.667.066-2.735C7.37 3.5 6.71 2.692 6.127 1.982l-.051-.062C5.575 1.307 4.992 1 4.342 1c-.72 0-1.319.389-1.636.593-.025.015-.05.036-.076.051-.711.45-1.227 1.069-1.422 1.698-.291.946-.485 2.173.91 4.724 1.207 2.209 2.301 3.692 4.04 5.476 1.636 1.677 2.362 2.22 3.988 3.395 1.81 1.309 3.548 2.06 4.765 2.06 1.13 0 2.02 0 3.288-1.528 1.329-1.606.777-2.587-.02-3.41z" stroke="#3A4097" stroke-width="1.4"/></svg><svg fill="none" viewBox="0 0 20 21" id="search" xmlns="http://www.w3.org/2000/svg"><path d="M8.135 1.283a6.852 6.852 0 11-6.846 6.852 6.883 6.883 0 016.846-6.852zm0-1.283a8.135 8.135 0 100 16.27 8.135 8.135 0 000-16.27zm11.683 18.955l-4.612-4.644-.888.883 4.612 4.643a.626.626 0 10.888-.882z" fill="#A4A4A4"/></svg><svg fill="none" viewBox="0 0 6 4" id="submenu-marker" xmlns="http://www.w3.org/2000/svg"><path d="M5.514.387L2.757 3.415 0 .387h5.514z" fill="#727385"/></svg></svg>